; Drill file
; Format: 2.4 (00.0000)
M48
INCH
T01C0.02
T02C0.031
%
G05
G90
T01
X002320Y003110
T02
X020500Y002650
X019500Y002650
X018500Y002650
X017500Y002650
X016500Y002650
X015500Y002650
X014500Y002650
X013500Y002650
X012500Y002650
X011500Y002650
X010500Y002650
X009500Y002650
X008500Y002650
X007500Y002650
X006500Y002650
X005500Y002650
X020500Y001650
X019500Y001650
X018500Y001650
X017500Y001650
X016500Y001650
X015500Y001650
X014500Y001650
X013500Y001650
X012500Y001650
X011500Y001650
X010500Y001650
X009500Y001650
X008500Y001650
X007500Y001650
X006500Y001650
X005500Y001650
M30
