%FSLAX34Y34*%
%MOMM*%
%LNCOPPER_TOP*%
G71*
G01*
%ADD10C, 2.30*%
%ADD11C, 1.80*%
%ADD12C, 0.70*%
%ADD13C, 0.10*%
%ADD14C, 0.18*%
%ADD15C, 0.15*%
%ADD16C, 0.70*%
%ADD17C, 0.28*%
%ADD18C, 0.30*%
%ADD19C, 1.80*%
%ADD20C, 2.30*%
%ADD21C, 2.00*%
%ADD22C, 2.00*%
%ADD23C, 2.00*%
%ADD24C, 1.00*%
%ADD25C, 0.40*%
%ADD26R, 1.80X5.00*%
%ADD27C, 0.27*%
%ADD28C, 0.33*%
%ADD29R, 0.80X5.00*%
%ADD30R, 0.80X3.00*%
%ADD31R, 2.00X2.00*%
%LPD*%
G36*
X382400Y-115500D02*
X359400Y-115500D01*
X359400Y-138500D01*
X382400Y-138500D01*
X382400Y-115500D01*
G37*
X345500Y-127000D02*
G54D10*
D03*
X320100Y-127000D02*
G54D10*
D03*
X294700Y-127000D02*
G54D10*
D03*
X269300Y-127000D02*
G54D10*
D03*
X243900Y-127000D02*
G54D10*
D03*
X218500Y-127000D02*
G54D10*
D03*
X193100Y-127000D02*
G54D10*
D03*
X167700Y-127000D02*
G54D10*
D03*
X142300Y-127000D02*
G54D10*
D03*
X116900Y-127000D02*
G54D10*
D03*
X91500Y-127000D02*
G54D10*
D03*
X370900Y-279400D02*
G54D11*
D03*
X345500Y-279400D02*
G54D11*
D03*
X320100Y-279400D02*
G54D10*
D03*
X294700Y-279400D02*
G54D10*
D03*
X269300Y-279400D02*
G54D10*
D03*
X243900Y-279400D02*
G54D10*
D03*
X218500Y-279400D02*
G54D10*
D03*
X193100Y-279400D02*
G54D10*
D03*
X167700Y-279400D02*
G54D10*
D03*
X142300Y-279400D02*
G54D10*
D03*
X116900Y-279400D02*
G54D10*
D03*
X91500Y-279400D02*
G54D10*
D03*
X294700Y-127000D02*
G54D10*
D03*
G54D12*
X18444Y-611600D02*
X62497Y-611600D01*
G54D12*
G75*
G01X47720Y-582223D02*
G03X19223Y-610720I10430J-38927D01*
G01*
G54D12*
X47812Y-582231D02*
X62894Y-582231D01*
G54D12*
X113694Y-611600D02*
X99406Y-568738D01*
G54D12*
G75*
G01X99639Y-569668D02*
G03X85150Y-558550I-14489J-3882D01*
G01*
G54D12*
X47219Y-558519D02*
X86112Y-558519D01*
G36*
X47700Y-555700D02*
X34900Y-555500D01*
X42300Y-561700D01*
X47500Y-561500D01*
X47700Y-555700D01*
G37*
G54D13*
X47700Y-555700D02*
X34900Y-555500D01*
X42300Y-561700D01*
X47500Y-561500D01*
X47700Y-555700D01*
G54D14*
X69590Y-609564D02*
X69590Y-596864D01*
X69590Y-584164D01*
G54D14*
X69590Y-596864D02*
X56890Y-596864D01*
G54D14*
X69590Y-596864D02*
X82290Y-596864D01*
G54D14*
X69536Y-596782D02*
X60556Y-587802D01*
G54D14*
X69536Y-596782D02*
X78516Y-605763D01*
G54D14*
X69536Y-596782D02*
X60556Y-605763D01*
G54D14*
X69536Y-596782D02*
X78516Y-587802D01*
G54D15*
X69442Y-597018D02*
X78242Y-600664D01*
G54D15*
X69442Y-597018D02*
X60642Y-593373D01*
G54D15*
X69442Y-597018D02*
X65796Y-605818D01*
G54D15*
X69442Y-597018D02*
X73087Y-588218D01*
G54D15*
X69662Y-597133D02*
X78462Y-593488D01*
G54D15*
X69662Y-597133D02*
X60862Y-600778D01*
G54D15*
X69662Y-597133D02*
X73307Y-605933D01*
G54D15*
X69662Y-597133D02*
X66016Y-588333D01*
G54D12*
X103375Y-582231D02*
X75594Y-582231D01*
G36*
X76900Y-579300D02*
X71500Y-579100D01*
X71500Y-585300D01*
X76700Y-585100D01*
X76900Y-579300D01*
G37*
G54D13*
X76900Y-579300D02*
X71500Y-579100D01*
X71500Y-585300D01*
X76700Y-585100D01*
X76900Y-579300D01*
G36*
X67500Y-579300D02*
X62100Y-579100D01*
X62100Y-585300D01*
X67300Y-585100D01*
X67500Y-579300D01*
G37*
G54D13*
X67500Y-579300D02*
X62100Y-579100D01*
X62100Y-585300D01*
X67300Y-585100D01*
X67500Y-579300D01*
X69850Y-596850D02*
G54D16*
D03*
G54D12*
X112900Y-611600D02*
X75197Y-611600D01*
G36*
X76900Y-608700D02*
X71500Y-608500D01*
X71500Y-614700D01*
X76700Y-614500D01*
X76900Y-608700D01*
G37*
G54D13*
X76900Y-608700D02*
X71500Y-608500D01*
X71500Y-614700D01*
X76700Y-614500D01*
X76900Y-608700D01*
G36*
X67500Y-608700D02*
X62100Y-608500D01*
X62100Y-614700D01*
X67300Y-614500D01*
X67500Y-608700D01*
G37*
G54D13*
X67500Y-608700D02*
X62100Y-608500D01*
X62100Y-614700D01*
X67300Y-614500D01*
X67500Y-608700D01*
G54D17*
X559667Y-286842D02*
X559667Y-273509D01*
X561056Y-273509D01*
X563834Y-275175D01*
X572167Y-285175D01*
X574945Y-286842D01*
X577722Y-286842D01*
X580500Y-285175D01*
X581889Y-281842D01*
X581889Y-278509D01*
X580500Y-275175D01*
X577722Y-273509D01*
G54D17*
X581889Y-292909D02*
X581889Y-306242D01*
X579111Y-304575D01*
X574945Y-301242D01*
X569389Y-297909D01*
X565222Y-296242D01*
X559667Y-296242D01*
G54D17*
X559667Y-312309D02*
X581889Y-325642D01*
G54D17*
X559667Y-345042D02*
X559667Y-331709D01*
X561056Y-331708D01*
X563834Y-333375D01*
X572167Y-343375D01*
X574945Y-345042D01*
X577722Y-345042D01*
X580500Y-343375D01*
X581889Y-340042D01*
X581889Y-336709D01*
X580500Y-333375D01*
X577722Y-331709D01*
G54D17*
X581889Y-351109D02*
X581889Y-364442D01*
X579111Y-362775D01*
X574945Y-359442D01*
X569389Y-356109D01*
X565222Y-354442D01*
X559667Y-354442D01*
G54D17*
X563834Y-383842D02*
X561056Y-382175D01*
X559667Y-378842D01*
X559667Y-375509D01*
X561056Y-372175D01*
X563834Y-370509D01*
X577722Y-370508D01*
X580500Y-372175D01*
X581889Y-375508D01*
X581889Y-378842D01*
X580500Y-382175D01*
X577722Y-383842D01*
G54D17*
X573556Y-396309D02*
X581889Y-404642D01*
X559667Y-404642D01*
G54D17*
X577722Y-424042D02*
X580500Y-422375D01*
X581889Y-419042D01*
X581889Y-415709D01*
X580500Y-412375D01*
X577722Y-410709D01*
X570778Y-410708D01*
X569389Y-410709D01*
X572167Y-415709D01*
X572167Y-419042D01*
X570778Y-422375D01*
X568000Y-424042D01*
X563834Y-424042D01*
X561056Y-422375D01*
X559667Y-419042D01*
X559667Y-415709D01*
X561056Y-412375D01*
X563834Y-410709D01*
X570778Y-410708D01*
G54D17*
X559667Y-430109D02*
X581889Y-443442D01*
G54D17*
X577722Y-449509D02*
X580500Y-451175D01*
X581889Y-454509D01*
X581889Y-457842D01*
X580500Y-461175D01*
X577722Y-462842D01*
X574945Y-462842D01*
X572167Y-461175D01*
X570778Y-457842D01*
X569389Y-461175D01*
X566611Y-462842D01*
X563834Y-462842D01*
X561056Y-461175D01*
X559667Y-457842D01*
X559667Y-454509D01*
X561056Y-451175D01*
X563834Y-449509D01*
G54D17*
X559667Y-482242D02*
X559667Y-468909D01*
X561056Y-468908D01*
X563834Y-470575D01*
X572167Y-480575D01*
X574945Y-482242D01*
X577722Y-482242D01*
X580500Y-480575D01*
X581889Y-477242D01*
X581889Y-473909D01*
X580500Y-470575D01*
X577722Y-468909D01*
G54D17*
X558700Y-63909D02*
X580922Y-63909D01*
X580922Y-72242D01*
X579533Y-75575D01*
X576756Y-77242D01*
X562867Y-77242D01*
X560089Y-75575D01*
X558700Y-72242D01*
X558700Y-63909D01*
G54D17*
X558700Y-83309D02*
X580922Y-83309D01*
G54D17*
X558700Y-89409D02*
X580922Y-89409D01*
X580922Y-97742D01*
X579533Y-101075D01*
X576756Y-102742D01*
X573978Y-102742D01*
X571200Y-101075D01*
X569811Y-97742D01*
X569811Y-89409D01*
G54D17*
X568422Y-108809D02*
X568422Y-122142D01*
G54D17*
X558700Y-141542D02*
X558700Y-128209D01*
X560089Y-128209D01*
X562867Y-129875D01*
X571200Y-139875D01*
X573978Y-141542D01*
X576756Y-141542D01*
X579533Y-139875D01*
X580922Y-136542D01*
X580922Y-133209D01*
X579533Y-129875D01*
X576756Y-128209D01*
G54D17*
X558700Y-157609D02*
X580922Y-157609D01*
X567033Y-147609D01*
X564256Y-147609D01*
X564256Y-160942D01*
G54D17*
X558700Y-167009D02*
X558700Y-183675D01*
G54D17*
X558700Y-189809D02*
X580922Y-198142D01*
X558700Y-206475D01*
G54D17*
X567033Y-193142D02*
X567033Y-203142D01*
G54D17*
X572589Y-212609D02*
X580922Y-220942D01*
X558700Y-220942D01*
G54D18*
X601100Y-9850D02*
X572800Y-9850D01*
G54D18*
X11100Y-9850D02*
X11100Y-35450D01*
G54D18*
X11100Y-619850D02*
X39400Y-619850D01*
G54D18*
X601100Y-9850D02*
X601100Y-35450D01*
G54D18*
X601100Y-619850D02*
X601100Y-594250D01*
G54D18*
X601100Y-619850D02*
X572800Y-619850D01*
G54D18*
X11100Y-619850D02*
X11100Y-594250D01*
G54D18*
X11100Y-9850D02*
X39400Y-9850D01*
X510600Y-571500D02*
G54D19*
D03*
X485200Y-571500D02*
G54D19*
D03*
X459800Y-571500D02*
G54D19*
D03*
X434400Y-571500D02*
G54D19*
D03*
X383600Y-571500D02*
G54D20*
D03*
X358200Y-571500D02*
G54D20*
D03*
X307400Y-571500D02*
G54D21*
D03*
X282000Y-571500D02*
G54D21*
D03*
X256600Y-571500D02*
G54D21*
D03*
X231200Y-571500D02*
G54D21*
D03*
X205800Y-571500D02*
G54D21*
D03*
X180400Y-571500D02*
G54D21*
D03*
X155000Y-571500D02*
G54D21*
D03*
X129600Y-571500D02*
G54D21*
D03*
X510600Y-596900D02*
G54D20*
D03*
X485200Y-596900D02*
G54D20*
D03*
X459800Y-596900D02*
G54D20*
D03*
X434400Y-596900D02*
G54D20*
D03*
X358200Y-596900D02*
G54D20*
D03*
X282000Y-596900D02*
G54D20*
D03*
X256600Y-596900D02*
G54D20*
D03*
X231200Y-596900D02*
G54D20*
D03*
X205800Y-596900D02*
G54D20*
D03*
X180400Y-596900D02*
G54D20*
D03*
X155000Y-596900D02*
G54D20*
D03*
X129600Y-596900D02*
G54D20*
D03*
G36*
X445900Y-367100D02*
X422900Y-367100D01*
X422900Y-344100D01*
X445900Y-344100D01*
X445900Y-367100D01*
G37*
G36*
X419000Y-365600D02*
X399000Y-365600D01*
X399000Y-345600D01*
X419000Y-345600D01*
X419000Y-365600D01*
G37*
G36*
X393600Y-365600D02*
X373600Y-365600D01*
X373600Y-345600D01*
X393600Y-345600D01*
X393600Y-365600D01*
G37*
G36*
X369700Y-367100D02*
X346700Y-367100D01*
X346700Y-344100D01*
X369700Y-344100D01*
X369700Y-367100D01*
G37*
G36*
X344300Y-367100D02*
X321300Y-367100D01*
X321300Y-344100D01*
X344300Y-344100D01*
X344300Y-367100D01*
G37*
G36*
X445900Y-443300D02*
X422900Y-443300D01*
X422900Y-420300D01*
X445900Y-420300D01*
X445900Y-443300D01*
G37*
G36*
X420500Y-443300D02*
X397500Y-443300D01*
X397500Y-420300D01*
X420500Y-420300D01*
X420500Y-443300D01*
G37*
G36*
X395100Y-443300D02*
X372100Y-443300D01*
X372100Y-420300D01*
X395100Y-420300D01*
X395100Y-443300D01*
G37*
G36*
X369700Y-443300D02*
X346700Y-443300D01*
X346700Y-420300D01*
X369700Y-420300D01*
X369700Y-443300D01*
G37*
G36*
X344300Y-443300D02*
X321300Y-443300D01*
X321300Y-420300D01*
X344300Y-420300D01*
X344300Y-443300D01*
G37*
X326450Y-381000D02*
G54D22*
D03*
X269300Y-381000D02*
G54D22*
D03*
X421700Y-460400D02*
G54D22*
D03*
X262950Y-460400D02*
G54D22*
D03*
X415350Y-520700D02*
G54D23*
D03*
G54D24*
X326450Y-381000D02*
X332800Y-355600D01*
G54D25*
X383600Y-355600D02*
X383600Y-431800D01*
G54D25*
X370900Y-279400D02*
X370900Y-317500D01*
X396300Y-317500D01*
X396300Y-338138D01*
G54D25*
X269300Y-279400D02*
X269300Y-241300D01*
X409000Y-241300D01*
X409000Y-355600D01*
G54D25*
X294700Y-279400D02*
X294700Y-254000D01*
X358200Y-254000D01*
X358200Y-266700D01*
G54D25*
X434400Y-355600D02*
X453450Y-355600D01*
X453450Y-460375D01*
X421700Y-460375D01*
G54D25*
X383600Y-571500D02*
X383600Y-495300D01*
X358200Y-495300D01*
X358200Y-431800D01*
G54D25*
X358200Y-596900D02*
X370900Y-596900D01*
X402650Y-596900D01*
X402650Y-552450D01*
X396300Y-546100D01*
X396300Y-457200D01*
X409000Y-431800D01*
G54D25*
X415350Y-520700D02*
X415350Y-479425D01*
X462975Y-479425D01*
X462975Y-228600D01*
X218500Y-228600D01*
X218500Y-279400D01*
G54D25*
X434400Y-571500D02*
X434400Y-492125D01*
X472500Y-492125D01*
X472500Y-203200D01*
X370900Y-203200D01*
X370900Y-127000D01*
G54D18*
X434400Y-596900D02*
X447100Y-584200D01*
X447100Y-557212D01*
G54D25*
X459800Y-571500D02*
X459800Y-517525D01*
X491550Y-517525D01*
X491550Y-73025D01*
X320100Y-73025D01*
X320100Y-127000D01*
G54D18*
X459800Y-596900D02*
X472500Y-584200D01*
X472500Y-557212D01*
G54D25*
X485200Y-571500D02*
X485200Y-542925D01*
X510600Y-542925D01*
X510600Y-53975D01*
X269300Y-53975D01*
X269300Y-127000D01*
G54D18*
X485200Y-596900D02*
X497900Y-584200D01*
X497900Y-555625D01*
G54D25*
X510600Y-571500D02*
X529650Y-571500D01*
X529650Y-34925D01*
X218500Y-34925D01*
X218500Y-127000D01*
G54D25*
X510600Y-596900D02*
X539175Y-596900D01*
X539175Y-25400D01*
X193100Y-25400D01*
X193100Y-127000D01*
G54D25*
X307400Y-571500D02*
X307400Y-342900D01*
X345500Y-323850D01*
X345500Y-279400D01*
G54D18*
X282000Y-596900D02*
X294700Y-584200D01*
X294700Y-552450D01*
G54D25*
X282000Y-571500D02*
X282000Y-393700D01*
X269300Y-381000D01*
G54D18*
X256600Y-596900D02*
X269300Y-584200D01*
X269300Y-552450D01*
G54D25*
X256600Y-558800D02*
X256600Y-512762D01*
X243900Y-466725D01*
X243900Y-381000D01*
X243900Y-266700D01*
G54D25*
X231200Y-571500D02*
X231200Y-444500D01*
X193100Y-444500D01*
X193100Y-279400D01*
G54D18*
X205800Y-596900D02*
X218500Y-584200D01*
X218500Y-546100D01*
G54D25*
X205800Y-571500D02*
X205800Y-469900D01*
X142300Y-469900D01*
X142300Y-279400D01*
G54D18*
X180400Y-596900D02*
X193100Y-584200D01*
X193100Y-546100D01*
G54D25*
X180400Y-571500D02*
X180400Y-495300D01*
X91500Y-495300D01*
X91500Y-279400D01*
G54D18*
X155000Y-596900D02*
X167700Y-584200D01*
X167700Y-546100D01*
G54D25*
X155000Y-571500D02*
X155000Y-520700D01*
X53400Y-520700D01*
X53400Y-69850D01*
X116900Y-69850D01*
X116900Y-127000D01*
G54D18*
X129600Y-596900D02*
X142300Y-584200D01*
X142300Y-546100D01*
G54D25*
X167700Y-127000D02*
X167700Y-44450D01*
X28000Y-44450D01*
X28000Y-546100D01*
X129600Y-546100D01*
X129600Y-571500D01*
X370900Y-298450D02*
G54D26*
D03*
X345500Y-298450D02*
G54D26*
D03*
X320100Y-298450D02*
G54D26*
D03*
X294700Y-298450D02*
G54D26*
D03*
X269300Y-298450D02*
G54D26*
D03*
X243900Y-298450D02*
G54D26*
D03*
X218500Y-298450D02*
G54D26*
D03*
X193100Y-298450D02*
G54D26*
D03*
X167700Y-298450D02*
G54D26*
D03*
X142300Y-298450D02*
G54D26*
D03*
X116900Y-298450D02*
G54D26*
D03*
X91500Y-298450D02*
G54D26*
D03*
X294700Y-107950D02*
G54D26*
D03*
X269300Y-107950D02*
G54D26*
D03*
X243900Y-107950D02*
G54D26*
D03*
X218500Y-107950D02*
G54D26*
D03*
X193100Y-107950D02*
G54D26*
D03*
X167700Y-107950D02*
G54D26*
D03*
X320100Y-107950D02*
G54D26*
D03*
X142300Y-107950D02*
G54D26*
D03*
X116900Y-107950D02*
G54D26*
D03*
X91500Y-107950D02*
G54D26*
D03*
X345500Y-107950D02*
G54D26*
D03*
X371094Y-114363D02*
G54D26*
D03*
G54D17*
X549600Y-558294D02*
X551267Y-555517D01*
X554600Y-554128D01*
X557933Y-554128D01*
X561267Y-555517D01*
X562933Y-558294D01*
X562933Y-561072D01*
X561267Y-563850D01*
X557933Y-565239D01*
X561267Y-566628D01*
X562933Y-569406D01*
X562933Y-572183D01*
X561267Y-574961D01*
X557933Y-576350D01*
X554600Y-576350D01*
X551267Y-574961D01*
X549600Y-572183D01*
G54D17*
X569000Y-562461D02*
X577333Y-554128D01*
X577333Y-576350D01*
G54D27*
X547750Y-587142D02*
X549350Y-584475D01*
X552550Y-583142D01*
X555750Y-583142D01*
X558950Y-584475D01*
X560550Y-587142D01*
X560550Y-589808D01*
X558950Y-592475D01*
X555750Y-593808D01*
X558950Y-595142D01*
X560550Y-597808D01*
X560550Y-600475D01*
X558950Y-603142D01*
X555750Y-604475D01*
X552550Y-604475D01*
X549350Y-603142D01*
X547750Y-600475D01*
G54D27*
X579250Y-604475D02*
X566450Y-604475D01*
X566450Y-603142D01*
X568050Y-600475D01*
X577650Y-592475D01*
X579250Y-589808D01*
X579250Y-587142D01*
X577650Y-584475D01*
X574450Y-583142D01*
X571250Y-583142D01*
X568050Y-584475D01*
X566450Y-587142D01*
G54D28*
X406100Y-117433D02*
X416100Y-107433D01*
X416100Y-134100D01*
G54D25*
X415350Y-520700D02*
X415350Y-612775D01*
X339150Y-612775D01*
X339150Y-571500D01*
X358200Y-571500D01*
G54D17*
X340900Y-404900D02*
X340900Y-382678D01*
X349233Y-382678D01*
X352567Y-384067D01*
X354233Y-386844D01*
X354233Y-400733D01*
X352567Y-403511D01*
X349233Y-404900D01*
X340900Y-404900D01*
G54D17*
X376458Y-400733D02*
X374792Y-403511D01*
X371458Y-404900D01*
X368125Y-404900D01*
X364792Y-403511D01*
X363125Y-400733D01*
X363125Y-386844D01*
X364792Y-384067D01*
X368125Y-382678D01*
X371458Y-382678D01*
X374792Y-384067D01*
X376458Y-386844D01*
G54D17*
X391700Y-404900D02*
X391700Y-382678D01*
X400033Y-382678D01*
X403367Y-384067D01*
X405033Y-386844D01*
X405033Y-389622D01*
X403367Y-392400D01*
X400033Y-393789D01*
X403367Y-395178D01*
X405033Y-397956D01*
X405033Y-400733D01*
X403367Y-403511D01*
X400033Y-404900D01*
X391700Y-404900D01*
G54D17*
X391700Y-393789D02*
X400033Y-393789D01*
G54D17*
X415400Y-404900D02*
X423733Y-382678D01*
X432067Y-404900D01*
G54D17*
X418733Y-396567D02*
X428733Y-396567D01*
G54D25*
X231775Y-596900D02*
X238125Y-612775D01*
X327025Y-612775D01*
X327025Y-450850D01*
X333375Y-431800D01*
X205581Y-539750D02*
G54D29*
D03*
X180181Y-539750D02*
G54D29*
D03*
X154781Y-552450D02*
G54D29*
D03*
X230981Y-539750D02*
G54D29*
D03*
X281781Y-539750D02*
G54D29*
D03*
X307181Y-539750D02*
G54D29*
D03*
G54D25*
X167700Y-279400D02*
X167700Y-457200D01*
X218500Y-457200D01*
X218500Y-546100D01*
G54D25*
X116900Y-279400D02*
X116900Y-482600D01*
X193100Y-482600D01*
X193100Y-546100D01*
G54D25*
X91500Y-127000D02*
X66100Y-127000D01*
X66100Y-508000D01*
X167700Y-508000D01*
X167700Y-546100D01*
G54D25*
X142300Y-127000D02*
X142300Y-57150D01*
X40700Y-57150D01*
X40700Y-533400D01*
X142300Y-533400D01*
X142300Y-546100D01*
G54D25*
X269300Y-469900D02*
X269300Y-552450D01*
G54D25*
X320100Y-279400D02*
X320100Y-323850D01*
X294700Y-336550D01*
X294700Y-552450D01*
G54D25*
X345500Y-127000D02*
X345500Y-82550D01*
X482025Y-82550D01*
X482025Y-504825D01*
X447100Y-504825D01*
X447100Y-557212D01*
G54D25*
X294700Y-127000D02*
X294700Y-63500D01*
X501075Y-63500D01*
X501075Y-530225D01*
X472500Y-530225D01*
X472500Y-557212D01*
G54D25*
X243900Y-127000D02*
X243900Y-44450D01*
X520125Y-44450D01*
X520125Y-555625D01*
X497900Y-555625D01*
X256381Y-539750D02*
G54D29*
D03*
X434181Y-539750D02*
G54D29*
D03*
X459581Y-539750D02*
G54D29*
D03*
X484981Y-552450D02*
G54D30*
D03*
X129381Y-565150D02*
G54D30*
D03*
G54D25*
X434400Y-431800D02*
X443925Y-431800D01*
X443925Y-374650D01*
X396300Y-374650D01*
X396300Y-371475D01*
G54D18*
X396300Y-371475D02*
X396300Y-338138D01*
G54D24*
X358200Y-355600D02*
X358200Y-330200D01*
G54D18*
X358200Y-330200D02*
X358200Y-266700D01*
X273050Y-381000D02*
G54D31*
D03*
X266700Y-460375D02*
G54D31*
D03*
X323850Y-381000D02*
G54D31*
D03*
X419100Y-460375D02*
G54D31*
D03*
G54D25*
X469900Y-152400D02*
X431800Y-152400D01*
X431800Y-139700D01*
X406400Y-165100D01*
X431800Y-190500D01*
X431800Y-177800D01*
X469900Y-177800D01*
X469900Y-152400D01*
G36*
X431800Y-139700D02*
X431800Y-152400D01*
X469900Y-152400D01*
X469900Y-177800D01*
X431800Y-177800D01*
X431800Y-190500D01*
X406400Y-165100D01*
X431800Y-139700D01*
G37*
G54D25*
X431800Y-139700D02*
X431800Y-152400D01*
X469900Y-152400D01*
X469900Y-177800D01*
X431800Y-177800D01*
X431800Y-190500D01*
X406400Y-165100D01*
X431800Y-139700D01*
M02*
