; Drill file
; Format: 2.4 (00.0000)
M48
INCH
T01C0.0197
T02C0.0315
%
G05
G90
T01
X002750Y-023500
X010350Y-018130
X010600Y-015000
X012850Y-015000
X016600Y-018130
T02
X005100Y-023500
X005100Y-022500
X006100Y-022500
X007100Y-022500
X008100Y-022500
X009100Y-022500
X010100Y-022500
X011100Y-022500
X012100Y-022500
X011100Y-023500
X010100Y-023500
X009100Y-023500
X008100Y-023500
X007100Y-023500
X006100Y-023500
X014100Y-023500
X014100Y-022500
X015100Y-022500
X017100Y-022500
X018100Y-022500
X019100Y-022500
X020100Y-022500
X020100Y-023500
X019100Y-023500
X018100Y-023500
X017100Y-023500
X017100Y-017000
X016100Y-017000
X015100Y-017000
X014100Y-017000
X013100Y-017000
X013100Y-014000
X014100Y-014000
X015100Y-014000
X016100Y-014000
X017100Y-014000
M30
