%FSLAX32Y32*%
%MOMM*%
%LNKUPFERSEITE2*%
G71*
G01*
%ADD10C, 2.30*%
%ADD11C, 0.50*%
%ADD12C, 3.50*%
%ADD13C, 2.20*%
%ADD14C, 1.70*%
%ADD15C, 0.40*%
%ADD16C, 0.00*%
%ADD17C, 2.00*%
%ADD18C, 0.80*%
%ADD19C, 0.20*%
%ADD20C, 1.00*%
%ADD21C, 0.23*%
%LPD*%
G36*
X5062Y4565D02*
X5292Y4565D01*
X5292Y4795D01*
X5062Y4795D01*
X5062Y4565D01*
G37*
G36*
X5316Y4565D02*
X5546Y4565D01*
X5546Y4795D01*
X5316Y4795D01*
X5316Y4565D01*
G37*
G36*
X5570Y4565D02*
X5800Y4565D01*
X5800Y4795D01*
X5570Y4795D01*
X5570Y4565D01*
G37*
G36*
X5824Y4565D02*
X6054Y4565D01*
X6054Y4795D01*
X5824Y4795D01*
X5824Y4565D01*
G37*
G36*
X3538Y4565D02*
X3768Y4565D01*
X3768Y4795D01*
X3538Y4795D01*
X3538Y4565D01*
G37*
G36*
X3792Y4565D02*
X4022Y4565D01*
X4022Y4795D01*
X3792Y4795D01*
X3792Y4565D01*
G37*
G36*
X4834Y1224D02*
X5014Y1224D01*
X5014Y1404D01*
X4834Y1404D01*
X4834Y1224D01*
G37*
G36*
X5088Y1224D02*
X5268Y1224D01*
X5268Y1404D01*
X5088Y1404D01*
X5088Y1224D01*
G37*
G36*
X5342Y1224D02*
X5522Y1224D01*
X5522Y1404D01*
X5342Y1404D01*
X5342Y1224D01*
G37*
G36*
X5596Y1224D02*
X5776Y1224D01*
X5776Y1404D01*
X5596Y1404D01*
X5596Y1224D01*
G37*
G36*
X5850Y1224D02*
X6030Y1224D01*
X6030Y1404D01*
X5850Y1404D01*
X5850Y1224D01*
G37*
G36*
X5028Y1474D02*
X5208Y1474D01*
X5208Y1654D01*
X5028Y1654D01*
X5028Y1474D01*
G37*
G36*
X5282Y1474D02*
X5462Y1474D01*
X5462Y1654D01*
X5282Y1654D01*
X5282Y1474D01*
G37*
G36*
X5536Y1474D02*
X5716Y1474D01*
X5716Y1654D01*
X5536Y1654D01*
X5536Y1474D01*
G37*
G36*
X5790Y1474D02*
X5970Y1474D01*
X5970Y1654D01*
X5790Y1654D01*
X5790Y1474D01*
G37*
G36*
X6044Y1474D02*
X6224Y1474D01*
X6224Y1654D01*
X6044Y1654D01*
X6044Y1474D01*
G37*
X4536Y4677D02*
G54D10*
D03*
X4536Y4177D02*
G54D10*
D03*
X4286Y3677D02*
G54D10*
D03*
X4786Y3677D02*
G54D10*
D03*
G54D11*
X5686Y4677D02*
X5436Y4677D01*
X6812Y4357D02*
G54D12*
D03*
X7095Y2698D02*
G54D10*
D03*
G54D13*
X6841Y2808D02*
X6841Y2588D01*
G36*
X6702Y2746D02*
X6635Y2813D01*
X6539Y2813D01*
X6472Y2746D01*
X6472Y2650D01*
X6539Y2583D01*
X6635Y2583D01*
X6702Y2650D01*
X6702Y2746D01*
G37*
G36*
X2522Y2787D02*
X2752Y2787D01*
X2752Y3017D01*
X2522Y3017D01*
X2522Y2787D01*
G37*
G36*
X2522Y3041D02*
X2752Y3041D01*
X2752Y3271D01*
X2522Y3271D01*
X2522Y3041D01*
G37*
X4174Y2000D02*
G54D10*
D03*
X3920Y2000D02*
G54D10*
D03*
X3666Y2000D02*
G54D10*
D03*
X3412Y2000D02*
G54D10*
D03*
X3412Y1238D02*
G54D10*
D03*
X3666Y1238D02*
G54D10*
D03*
G54D14*
X3920Y1322D02*
X3920Y1152D01*
G36*
X4264Y1327D02*
X4084Y1327D01*
X4084Y1147D01*
X4264Y1147D01*
X4264Y1327D01*
G37*
X3856Y3142D02*
G54D10*
D03*
X4174Y3396D02*
G54D10*
D03*
X4936Y3142D02*
G54D10*
D03*
X5254Y3396D02*
G54D10*
D03*
X3285Y602D02*
G54D10*
D03*
X4364Y602D02*
G54D10*
D03*
X7476Y3016D02*
G54D10*
D03*
X7476Y1936D02*
G54D10*
D03*
X4492Y2126D02*
G54D10*
D03*
X4492Y1047D02*
G54D10*
D03*
X4618Y2825D02*
G54D10*
D03*
X4618Y2444D02*
G54D10*
D03*
X5634Y2000D02*
G54D10*
D03*
X4872Y2000D02*
G54D10*
D03*
X5126Y2444D02*
G54D10*
D03*
X5126Y3079D02*
G54D10*
D03*
X5508Y3650D02*
G54D10*
D03*
X5508Y2508D02*
G54D10*
D03*
X5888Y4412D02*
G54D10*
D03*
X5888Y3270D02*
G54D10*
D03*
X5825Y2952D02*
G54D10*
D03*
X5825Y1809D02*
G54D10*
D03*
X6142Y3650D02*
G54D10*
D03*
X6142Y2444D02*
G54D10*
D03*
X7158Y2444D02*
G54D10*
D03*
X6524Y2444D02*
G54D10*
D03*
X7095Y2190D02*
G54D10*
D03*
X6079Y2190D02*
G54D10*
D03*
X7222Y1936D02*
G54D10*
D03*
X6206Y1936D02*
G54D10*
D03*
X7476Y1682D02*
G54D10*
D03*
X7508Y1428D02*
G54D10*
D03*
X6460Y1682D02*
G54D10*
D03*
X6555Y1428D02*
G54D10*
D03*
X7476Y666D02*
G54D10*
D03*
X6396Y666D02*
G54D10*
D03*
G54D15*
X7476Y1428D02*
X7286Y920D01*
G54D15*
X6142Y1555D02*
X6111Y1333D01*
X6111Y1047D01*
X6396Y666D01*
G54D15*
X5380Y4032D02*
X5254Y3396D01*
G54D15*
X5634Y4032D02*
X5634Y3778D01*
X5508Y3650D01*
X5508Y3142D01*
X5825Y2952D01*
G54D15*
X5825Y3270D02*
X6079Y3650D01*
X6079Y4540D01*
X5952Y4666D01*
G54D15*
X5698Y4666D02*
X5825Y4412D01*
G54D15*
X5190Y4666D02*
X5190Y4857D01*
X7158Y4857D01*
X7158Y2698D01*
G54D15*
X7476Y3016D02*
X7158Y3016D01*
G54D15*
X7095Y2698D02*
X7095Y2634D01*
X6968Y2508D01*
X6968Y2317D01*
X7095Y2190D01*
G54D15*
X6841Y2698D02*
X6746Y2444D01*
X6524Y2444D01*
G54D15*
X7222Y1936D02*
X6555Y1936D01*
G54D15*
X6381Y1158D02*
X6381Y1285D01*
X6381Y1571D01*
X6460Y1682D01*
X6841Y2698D01*
G54D15*
X6079Y2190D02*
X6206Y1936D01*
G54D15*
X7476Y1682D02*
X7143Y1253D01*
X6841Y1142D01*
G54D11*
X7476Y1936D02*
X7158Y2444D01*
G54D11*
X7476Y1936D02*
X7666Y1809D01*
X7666Y412D01*
X4174Y412D01*
X4174Y856D01*
G54D11*
X4174Y412D02*
X618Y412D01*
X618Y4920D01*
X4936Y4920D01*
X4968Y4587D01*
X5126Y4032D01*
G54D11*
X7666Y920D02*
X7476Y920D01*
G54D15*
X7095Y920D02*
X7095Y666D01*
X7476Y666D01*
G54D15*
X7158Y666D02*
X6841Y666D01*
X6650Y491D01*
X4618Y491D01*
X4364Y602D01*
G54D15*
X5126Y3079D02*
X4936Y3079D01*
X4872Y3142D01*
G54D15*
X4174Y3396D02*
X4174Y3047D01*
X4047Y2698D01*
G54D15*
X4174Y3142D02*
X3856Y3142D01*
G54D15*
X4936Y3142D02*
X4618Y2825D01*
G54D15*
X4968Y3142D02*
X4968Y3857D01*
X4809Y4841D01*
X4095Y4841D01*
X3920Y4698D01*
G54D11*
X5508Y2508D02*
X5190Y2508D01*
X5126Y2444D01*
X4618Y2444D01*
X4492Y2126D01*
X4492Y1301D01*
X4936Y1301D01*
G54D15*
X4492Y1301D02*
X4301Y1301D01*
X4174Y1238D01*
G54D15*
X5126Y3079D02*
X5762Y2762D01*
X6333Y2762D01*
X6587Y2698D01*
G54D15*
X5444Y1301D02*
X5254Y1110D01*
X4714Y1110D01*
X4492Y1047D01*
G54D15*
X5126Y1555D02*
X5047Y1420D01*
X5047Y1118D01*
G54D15*
X5126Y1555D02*
X4857Y1555D01*
X4650Y1746D01*
X4650Y2206D01*
X4746Y2285D01*
X5555Y2285D01*
X5698Y2412D01*
X5698Y2571D01*
X5603Y2698D01*
X4872Y2698D01*
X4238Y2508D01*
X3856Y2508D01*
X3793Y2698D01*
G54D15*
X5190Y1333D02*
X5246Y1396D01*
X5246Y1730D01*
X5182Y1809D01*
X4809Y1809D01*
X4714Y1904D01*
X4714Y2126D01*
X4777Y2190D01*
X5666Y2190D01*
X6206Y2508D01*
G54D15*
X5857Y2317D02*
X5857Y1904D01*
X5825Y1809D01*
G54D15*
X5380Y1555D02*
X5380Y1841D01*
X5222Y2000D01*
X4872Y2000D01*
G54D15*
X5634Y2000D02*
X5634Y1968D01*
X5634Y1555D01*
X5555Y1428D01*
X5555Y1142D01*
X5952Y1142D01*
X5952Y1301D01*
X6008Y1396D01*
X6008Y1777D01*
X6301Y1777D01*
X6301Y1428D01*
X6206Y1349D01*
X6206Y1079D01*
X6317Y984D01*
X6516Y984D01*
X6650Y1206D01*
G54D15*
X5888Y1587D02*
X5698Y1333D01*
G54D11*
X3285Y602D02*
X3285Y412D01*
G36*
X1623Y4333D02*
X1556Y4400D01*
X1460Y4400D01*
X1393Y4333D01*
X1393Y4237D01*
X1460Y4170D01*
X1556Y4170D01*
X1623Y4237D01*
X1623Y4333D01*
G37*
G36*
X1623Y2809D02*
X1556Y2876D01*
X1460Y2876D01*
X1393Y2809D01*
X1393Y2713D01*
X1460Y2646D01*
X1556Y2646D01*
X1623Y2713D01*
X1623Y2809D01*
G37*
G54D15*
X4555Y4666D02*
X4555Y4158D01*
G36*
X3400Y4683D02*
X3333Y4750D01*
X3237Y4750D01*
X3170Y4683D01*
X3170Y4587D01*
X3237Y4520D01*
X3333Y4520D01*
X3400Y4587D01*
X3400Y4683D01*
G37*
G36*
X2320Y4683D02*
X2254Y4750D01*
X2158Y4750D01*
X2090Y4683D01*
X2090Y4587D01*
X2158Y4520D01*
X2254Y4520D01*
X2320Y4587D01*
X2320Y4683D01*
G37*
G36*
X3400Y4365D02*
X3333Y4432D01*
X3237Y4432D01*
X3170Y4365D01*
X3170Y4269D01*
X3237Y4202D01*
X3333Y4202D01*
X3400Y4269D01*
X3400Y4365D01*
G37*
G36*
X2320Y4365D02*
X2254Y4432D01*
X2158Y4432D01*
X2090Y4365D01*
X2090Y4269D01*
X2158Y4202D01*
X2254Y4202D01*
X2320Y4269D01*
X2320Y4365D01*
G37*
G54D15*
X2206Y4666D02*
X2206Y4317D01*
G54D15*
X3666Y4666D02*
X3285Y4635D01*
G54D15*
X3285Y4317D02*
X3476Y4476D01*
X3920Y4476D01*
X3920Y4666D01*
G54D11*
X4174Y1238D02*
X4174Y856D01*
G54D15*
X3920Y1238D02*
X3666Y2000D01*
G36*
X4289Y904D02*
X4222Y972D01*
X4126Y972D01*
X4059Y904D01*
X4059Y808D01*
X4126Y742D01*
X4222Y742D01*
X4289Y808D01*
X4289Y904D01*
G37*
G36*
X3781Y904D02*
X3714Y972D01*
X3618Y972D01*
X3551Y904D01*
X3551Y808D01*
X3618Y742D01*
X3714Y742D01*
X3781Y808D01*
X3781Y904D01*
G37*
G36*
X1677Y2085D02*
X1645Y2053D01*
X1566Y2053D01*
X1534Y2085D01*
X1534Y2402D01*
X1566Y2434D01*
X1645Y2434D01*
X1677Y2402D01*
X1677Y2085D01*
G37*
G54D16*
X1677Y2085D02*
X1645Y2053D01*
X1566Y2053D01*
X1534Y2085D01*
X1534Y2402D01*
X1566Y2434D01*
X1645Y2434D01*
X1677Y2402D01*
X1677Y2085D01*
G36*
X1169Y2085D02*
X1137Y2053D01*
X1058Y2053D01*
X1026Y2085D01*
X1026Y2402D01*
X1058Y2434D01*
X1137Y2434D01*
X1169Y2402D01*
X1169Y2085D01*
G37*
G54D16*
X1169Y2085D02*
X1137Y2053D01*
X1058Y2053D01*
X1026Y2085D01*
X1026Y2402D01*
X1058Y2434D01*
X1137Y2434D01*
X1169Y2402D01*
X1169Y2085D01*
G36*
X1655Y2381D02*
X1555Y2381D01*
X1555Y2281D01*
X1655Y2281D01*
X1655Y2381D01*
G37*
G36*
X1147Y2381D02*
X1047Y2381D01*
X1047Y2281D01*
X1147Y2281D01*
X1147Y2381D01*
G37*
G36*
X1963Y847D02*
X1931Y815D01*
X772Y815D01*
X740Y847D01*
X740Y1902D01*
X772Y1934D01*
X1931Y1934D01*
X1963Y1902D01*
X1963Y847D01*
G37*
G54D16*
X1963Y847D02*
X1931Y815D01*
X772Y815D01*
X740Y847D01*
X740Y1902D01*
X772Y1934D01*
X1931Y1934D01*
X1963Y1902D01*
X1963Y847D01*
G36*
X1451Y1074D02*
X1251Y1074D01*
X1251Y874D01*
X1451Y874D01*
X1451Y1074D01*
G37*
G36*
X1915Y886D02*
X1883Y855D01*
X804Y855D01*
X772Y886D01*
X772Y1712D01*
X804Y1743D01*
X1883Y1743D01*
X1915Y1712D01*
X1915Y886D01*
G37*
G54D16*
X1915Y886D02*
X1883Y855D01*
X804Y855D01*
X772Y886D01*
X772Y1712D01*
X804Y1743D01*
X1883Y1743D01*
X1915Y1712D01*
X1915Y886D01*
G36*
X2380Y2718D02*
X2313Y2651D01*
X2313Y2555D01*
X2380Y2488D01*
X2476Y2488D01*
X2543Y2555D01*
X2543Y2651D01*
X2476Y2718D01*
X2380Y2718D01*
G37*
G36*
X2380Y1638D02*
X2313Y1571D01*
X2313Y1475D01*
X2380Y1408D01*
X2476Y1408D01*
X2543Y1475D01*
X2543Y1571D01*
X2476Y1638D01*
X2380Y1638D01*
G37*
G36*
X2570Y2718D02*
X2503Y2651D01*
X2503Y2555D01*
X2570Y2488D01*
X2666Y2488D01*
X2733Y2555D01*
X2733Y2651D01*
X2666Y2718D01*
X2570Y2718D01*
G37*
G36*
X2570Y1638D02*
X2503Y1571D01*
X2503Y1475D01*
X2570Y1408D01*
X2666Y1408D01*
X2733Y1475D01*
X2733Y1571D01*
X2666Y1638D01*
X2570Y1638D01*
G37*
G36*
X3972Y4143D02*
X3904Y4210D01*
X3808Y4210D01*
X3742Y4143D01*
X3742Y4047D01*
X3808Y3980D01*
X3904Y3980D01*
X3972Y4047D01*
X3972Y4143D01*
G37*
G36*
X2892Y4143D02*
X2825Y4210D01*
X2729Y4210D01*
X2662Y4143D01*
X2662Y4047D01*
X2729Y3980D01*
X2825Y3980D01*
X2892Y4047D01*
X2892Y4143D01*
G37*
G54D15*
X3920Y1238D02*
X3666Y856D01*
G54D17*
X2650Y3142D02*
X2650Y2634D01*
X1761Y4666D02*
G54D10*
D03*
X1511Y4666D02*
G54D10*
D03*
X1261Y4666D02*
G54D10*
D03*
G54D15*
X4301Y3650D02*
X3856Y4095D01*
G54D11*
X2777Y4095D02*
X2777Y4920D01*
G54D15*
X2206Y4317D02*
X2555Y3809D01*
X3285Y3809D01*
X3730Y4286D01*
X3984Y4286D01*
X4364Y3904D01*
X4618Y3904D01*
X4809Y3650D01*
G54D15*
X4555Y4381D02*
X3666Y4381D01*
X3222Y3904D01*
X2650Y3904D01*
X2586Y3968D01*
X2586Y4508D01*
X2317Y4825D01*
X1920Y4825D01*
X1761Y4698D01*
G54D18*
X2428Y1523D02*
X2428Y2095D01*
X1507Y2762D01*
G54D11*
X1253Y4666D02*
X1253Y4920D01*
G54D15*
X1507Y4286D02*
X1507Y3079D01*
X1316Y3079D01*
X1316Y1809D01*
G36*
X3908Y3572D02*
X3841Y3638D01*
X3745Y3638D01*
X3678Y3572D01*
X3678Y3476D01*
X3745Y3408D01*
X3841Y3408D01*
X3908Y3476D01*
X3908Y3572D01*
G37*
G36*
X2702Y3572D02*
X2634Y3638D01*
X2538Y3638D01*
X2472Y3572D01*
X2472Y3476D01*
X2538Y3408D01*
X2634Y3408D01*
X2702Y3476D01*
X2702Y3572D01*
G37*
G54D15*
X3539Y2698D02*
X3602Y3016D01*
X3602Y3396D01*
X3793Y3524D01*
G54D15*
X2586Y3587D02*
X1507Y3587D01*
G54D15*
X4174Y2000D02*
X4047Y2380D01*
X3476Y2380D01*
X3348Y2508D01*
X3348Y2952D01*
X3190Y3333D01*
X2650Y3142D01*
G36*
X4162Y1667D02*
X4095Y1734D01*
X3999Y1734D01*
X3932Y1667D01*
X3932Y1571D01*
X3999Y1504D01*
X4095Y1504D01*
X4162Y1571D01*
X4162Y1667D01*
G37*
G36*
X3527Y1667D02*
X3460Y1734D01*
X3364Y1734D01*
X3297Y1667D01*
X3297Y1571D01*
X3364Y1504D01*
X3460Y1504D01*
X3527Y1571D01*
X3527Y1667D01*
G37*
G54D15*
X4174Y2000D02*
X4047Y1618D01*
G54D15*
X3412Y1618D02*
X3412Y1238D01*
G54D15*
X1507Y4666D02*
X1634Y4476D01*
X1761Y4476D01*
X2269Y3714D01*
X2777Y3714D01*
X2777Y3333D01*
X2206Y3333D01*
X2206Y2444D01*
X2968Y1746D01*
X3412Y2000D01*
G54D15*
X1126Y2254D02*
X618Y2254D01*
G36*
X2952Y3194D02*
X2885Y3127D01*
X2885Y3031D01*
X2952Y2964D01*
X3048Y2964D01*
X3115Y3031D01*
X3115Y3127D01*
X3048Y3194D01*
X2952Y3194D01*
G37*
G36*
X2952Y2114D02*
X2885Y2047D01*
X2885Y1951D01*
X2952Y1884D01*
X3048Y1884D01*
X3115Y1951D01*
X3115Y2047D01*
X3048Y2114D01*
X2952Y2114D01*
G37*
G36*
X3049Y487D02*
X3116Y554D01*
X3116Y650D01*
X3049Y717D01*
X2953Y717D01*
X2886Y650D01*
X2886Y554D01*
X2953Y487D01*
X3049Y487D01*
G37*
G36*
X3049Y1566D02*
X3116Y1633D01*
X3116Y1729D01*
X3049Y1796D01*
X2953Y1796D01*
X2886Y1729D01*
X2886Y1633D01*
X2953Y1566D01*
X3049Y1566D01*
G37*
G54D15*
X3920Y2000D02*
X3793Y2254D01*
X3412Y2254D01*
X3190Y2254D01*
X2999Y3079D01*
G36*
X3143Y3448D02*
X3076Y3381D01*
X3076Y3285D01*
X3143Y3218D01*
X3239Y3218D01*
X3306Y3285D01*
X3306Y3381D01*
X3239Y3448D01*
X3143Y3448D01*
G37*
G36*
X3143Y2368D02*
X3076Y2301D01*
X3076Y2205D01*
X3143Y2138D01*
X3239Y2138D01*
X3306Y2205D01*
X3306Y2301D01*
X3239Y2368D01*
X3143Y2368D01*
G37*
G54D15*
X3666Y1238D02*
X3666Y1682D01*
X3539Y1809D01*
X3317Y1809D01*
X3222Y1746D01*
X3222Y1428D01*
X3031Y1174D01*
X2206Y1174D01*
X2206Y2000D01*
X1920Y2190D01*
X1634Y2190D01*
G54D15*
X3412Y1238D02*
X3031Y602D01*
X6142Y730D02*
G54D10*
D03*
X4682Y730D02*
G54D10*
D03*
G54D15*
X7730Y539D02*
X7730Y348D01*
X7540Y348D01*
G54D15*
X745Y348D02*
X554Y348D01*
X554Y539D01*
G54D15*
X745Y4984D02*
X554Y4984D01*
X554Y4794D01*
G54D15*
X7730Y4794D02*
X7730Y4984D01*
X7540Y4984D01*
G54D15*
X4047Y1618D02*
X4047Y984D01*
X3730Y666D01*
X3539Y666D01*
X3222Y920D01*
G54D19*
X7414Y4882D02*
X7574Y4882D01*
X7574Y4822D01*
X7564Y4798D01*
X7544Y4786D01*
X7444Y4786D01*
X7424Y4798D01*
X7414Y4822D01*
X7414Y4882D01*
G54D19*
X7444Y4646D02*
X7424Y4658D01*
X7414Y4682D01*
X7414Y4706D01*
X7424Y4730D01*
X7444Y4742D01*
X7544Y4742D01*
X7564Y4730D01*
X7574Y4706D01*
X7574Y4682D01*
X7564Y4658D01*
X7544Y4646D01*
G54D19*
X7414Y4506D02*
X7414Y4602D01*
X7424Y4602D01*
X7444Y4590D01*
X7504Y4518D01*
X7524Y4506D01*
X7544Y4506D01*
X7564Y4518D01*
X7574Y4542D01*
X7574Y4566D01*
X7564Y4590D01*
X7544Y4602D01*
G54D19*
X7414Y4462D02*
X7574Y4462D01*
X7574Y4402D01*
X7564Y4378D01*
X7544Y4366D01*
X7444Y4366D01*
X7424Y4378D01*
X7414Y4402D01*
X7414Y4462D01*
G54D19*
X7444Y4226D02*
X7424Y4238D01*
X7414Y4262D01*
X7414Y4286D01*
X7424Y4310D01*
X7444Y4322D01*
X7544Y4322D01*
X7564Y4310D01*
X7574Y4286D01*
X7574Y4262D01*
X7564Y4238D01*
X7544Y4226D01*
G54D19*
X7414Y4182D02*
X7414Y4062D01*
G54D19*
X7414Y4018D02*
X7574Y3958D01*
X7414Y3898D01*
G54D19*
X7474Y3994D02*
X7474Y3922D01*
G54D19*
X7414Y3782D02*
X7574Y3782D01*
X7474Y3854D01*
X7454Y3854D01*
X7454Y3758D01*
G54D19*
X7414Y3714D02*
X7414Y3594D01*
G54D19*
X7574Y3454D02*
X7574Y3550D01*
X7504Y3550D01*
X7504Y3538D01*
X7514Y3514D01*
X7514Y3490D01*
X7504Y3466D01*
X7484Y3454D01*
X7444Y3454D01*
X7424Y3466D01*
X7414Y3490D01*
X7414Y3514D01*
X7424Y3538D01*
X7444Y3550D01*
G54D19*
X7574Y3314D02*
X7574Y3410D01*
X7504Y3410D01*
X7504Y3398D01*
X7514Y3374D01*
X7514Y3350D01*
X7504Y3326D01*
X7484Y3314D01*
X7444Y3314D01*
X7424Y3326D01*
X7414Y3350D01*
X7414Y3374D01*
X7424Y3398D01*
X7444Y3410D01*
G54D19*
X7574Y3174D02*
X7574Y3270D01*
X7504Y3270D01*
X7504Y3258D01*
X7514Y3234D01*
X7514Y3210D01*
X7504Y3186D01*
X7484Y3174D01*
X7444Y3174D01*
X7424Y3186D01*
X7414Y3210D01*
X7414Y3234D01*
X7424Y3258D01*
X7444Y3270D01*
X4047Y2698D02*
G54D10*
D03*
X3797Y2698D02*
G54D10*
D03*
X3547Y2698D02*
G54D10*
D03*
G54D15*
X3793Y3524D02*
X3920Y3587D01*
X4110Y3587D01*
X4349Y3492D01*
X4618Y3492D01*
X4618Y2825D01*
X5634Y4032D02*
G54D10*
D03*
X5384Y4032D02*
G54D10*
D03*
X5134Y4032D02*
G54D10*
D03*
X7060Y930D02*
G54D10*
D03*
X7310Y930D02*
G54D10*
D03*
X7560Y930D02*
G54D10*
D03*
X6874Y1174D02*
G54D10*
D03*
X6624Y1174D02*
G54D10*
D03*
X6374Y1174D02*
G54D10*
D03*
G54D20*
X6142Y730D02*
X4682Y730D01*
G54D15*
X4682Y730D02*
X4174Y856D01*
G54D19*
X4936Y1047D02*
X4936Y920D01*
G54D21*
X5000Y920D02*
X4872Y920D01*
G54D15*
X7476Y1682D02*
X6555Y1428D01*
G54D15*
X3666Y2000D02*
X3539Y2174D01*
X3348Y2174D01*
X3158Y2000D01*
X2999Y2000D01*
M02*
