; Drill file
; Format: 2.4 (00.0000)
M48
INCH
T01C0.031
T02C0.118
%
G05
G90
T01
X020390Y018430
X021390Y018430
X022390Y018430
X023390Y018430
X014390Y018430
X015390Y018430
X019390Y005170
X020390Y005170
X021390Y005170
X022390Y005170
X023390Y005170
X020150Y006160
X021150Y006160
X022150Y006160
X023150Y006160
X024150Y006160
X017860Y018410
X017860Y016440
X016870Y014480
X018840Y014480
X027930Y010620
X026930Y010620
X025930Y010620
X010390Y011430
X010390Y012430
X016430Y007870
X015430Y007870
X014430Y007870
X013430Y007870
X013430Y004870
X014430Y004870
X015430Y004870
X016430Y004870
X015180Y012370
X016430Y013370
X019430Y012370
X020690Y013370
X012930Y002370
X017180Y002370
X029430Y011870
X029430Y007620
X017690Y008370
X017690Y004120
X018180Y011120
X018180Y009620
X022180Y007870
X019180Y007870
X020180Y009620
X020180Y012120
X021690Y014370
X021690Y009870
X023180Y017370
X023180Y012870
X022930Y011620
X022930Y007120
X024180Y014370
X024180Y009620
X028180Y009620
X025690Y009620
X027930Y008620
X023930Y008620
X028430Y007620
X024430Y007620
X029430Y006620
X029560Y005620
X025430Y006620
X025810Y005620
X029430Y002620
X025180Y002620
X005940Y016870
X005940Y010870
X012930Y018250
X008690Y018250
X012930Y017000
X008690Y017000
X016430Y003370
X014430Y003370
X009560Y010250
X009560Y006000
X010310Y010250
X010310Y006000
X015180Y016120
X010930Y016120
X006930Y018370
X005950Y018370
X004960Y018370
X014930Y013870
X010180Y013870
X011810Y012120
X011810Y007870
X011810Y002370
X011810Y006620
X012560Y013120
X012560Y008870
X024180Y002870
X018430Y002870
X015930Y010620
X014950Y010620
X013960Y010620
X022180Y015870
X021200Y015870
X020210Y015870
X027800Y003660
X028780Y003660
X029760Y003660
X027060Y004620
X026080Y004620
X025090Y004620
T02
X026820Y017150
M30
